<svg xmlns="http://www.w3.org/2000/svg" xmlns:xlink="http://www.w3.org/1999/xlink" id="Livello_1" x="0px" y="0px" viewBox="0 0 400 400" style="enable-background:new 0 0 400 400;" xml:space="preserve">
<style type="text/css">
	.st0{fill:#FFCF00;}
	.st1{fill:#FFF195;}
	.st2{fill:#FFEE00;}
	.st3{fill:#CEB600;}
	.st4{fill:#FFFD30;}
	.st5{fill:#FFFD6A;}
	.st6{fill:#493B00;}
</style>
<g>
	<rect x="32.1" y="64.1" class="st0" width="16" height="16"></rect>
	<rect x="16.1" y="64.1" class="st1" width="16" height="16"></rect>
	<rect x="0.1" y="64.1" class="st1" width="16" height="16"></rect>
	<rect x="32.1" y="80.1" class="st0" width="16" height="16"></rect>
	<rect x="16.1" y="80.1" class="st0" width="16" height="16"></rect>
	<rect x="0.1" y="80.1" class="st0" width="16" height="16"></rect>
	<rect x="32.1" y="96.1" class="st0" width="16" height="16"></rect>
	<rect x="16.1" y="96.1" class="st0" width="16" height="16"></rect>
	<rect x="48.1" y="112.1" class="st0" width="16" height="16"></rect>
	<rect x="32.1" y="112.1" class="st2" width="16" height="16"></rect>
	<rect x="16.1" y="112.1" class="st0" width="16" height="16"></rect>
	<rect x="64.1" y="128.1" class="st0" width="16" height="16"></rect>
	<rect x="48.1" y="128.1" class="st0" width="16" height="16"></rect>
	<rect x="32.1" y="128.1" class="st2" width="16" height="16"></rect>
	<rect x="16.1" y="128.1" class="st0" width="16" height="16"></rect>
	<rect x="384" y="144.1" class="st3" width="16" height="16"></rect>
	<rect x="368" y="144.1" class="st0" width="16" height="16"></rect>
	<rect x="352" y="144.1" class="st0" width="16" height="16"></rect>
	<rect x="336" y="144.1" class="st0" width="16" height="16"></rect>
	<rect x="80.1" y="144.1" class="st0" width="16" height="16"></rect>
	<rect x="64.1" y="144.1" class="st0" width="16" height="16"></rect>
	<rect x="48.1" y="144.1" class="st2" width="16" height="16"></rect>
	<rect x="32.1" y="144.1" class="st4" width="16" height="16"></rect>
	<rect x="16.1" y="144.1" class="st2" width="16" height="16"></rect>
	<rect x="0.1" y="144.1" class="st0" width="16" height="16"></rect>
	<rect x="383.9" y="160.2" class="st0" width="16" height="16"></rect>
	<rect x="352.6" y="160.1" class="st2" width="16" height="16"></rect>
	<rect x="336.6" y="160.1" class="st2" width="16" height="16"></rect>
	<rect x="320" y="160.1" class="st0" width="16" height="16"></rect>
	<rect x="304" y="160.1" class="st0" width="16" height="16"></rect>
	<rect x="96.1" y="160.1" class="st0" width="16" height="16"></rect>
	<rect x="80.1" y="160.1" class="st0" width="16" height="16"></rect>
	<rect x="64.1" y="160.1" class="st2" width="16" height="16"></rect>
	<rect x="48.1" y="160.1" class="st4" width="16" height="16"></rect>
	<rect x="32.1" y="160.1" class="st4" width="16" height="16"></rect>
	<rect x="16.1" y="160.1" class="st2" width="16" height="16"></rect>
	<rect x="0.1" y="160.1" class="st0" width="16" height="16"></rect>
	<rect x="383.9" y="176.2" class="st0" width="16" height="16"></rect>
	<rect x="368" y="176.1" class="st2" width="16" height="16"></rect>
	<rect x="336" y="176.1" class="st4" width="16" height="16"></rect>
	<rect x="320.6" y="176.1" class="st2" width="16" height="16"></rect>
	<rect x="304" y="176.1" class="st2" width="16" height="16"></rect>
	<rect x="288" y="176.1" class="st0" width="16" height="16"></rect>
	<rect x="272" y="176.1" class="st0" width="16" height="16"></rect>
	<rect x="128.1" y="176.1" class="st0" width="16" height="16"></rect>
	<rect x="112.1" y="176.1" class="st0" width="16" height="16"></rect>
	<rect x="96.1" y="176.1" class="st2" width="16" height="16"></rect>
	<rect x="80.1" y="176.1" class="st2" width="16" height="16"></rect>
	<rect x="64.1" y="176.1" class="st4" width="16" height="16"></rect>
	<rect x="48.1" y="176.1" class="st4" width="16" height="16"></rect>
	<rect x="32.1" y="176.1" class="st4" width="16" height="16"></rect>
	<rect x="16.1" y="176.1" class="st2" width="16" height="16"></rect>
	<rect x="0.1" y="176.1" class="st0" width="16" height="16"></rect>
	<rect x="384" y="192.1" class="st0" width="16" height="16"></rect>
	<rect x="367.9" y="192.2" class="st0" width="16" height="16"></rect>
	<rect x="352.6" y="192.1" class="st2" width="16" height="16"></rect>
	<rect x="304" y="192.1" class="st4" width="16" height="16"></rect>
	<rect x="288" y="192.1" class="st2" width="16" height="16"></rect>
	<rect x="272" y="192.1" class="st2" width="16" height="16"></rect>
	<rect x="256" y="192.1" class="st0" width="16" height="16"></rect>
	<rect x="240" y="192.1" class="st0" width="16" height="16"></rect>
	<rect x="224" y="192.1" class="st0" width="16" height="16"></rect>
	<rect x="208" y="192.1" class="st0" width="16" height="16"></rect>
	<rect x="192" y="192.1" class="st0" width="16" height="16"></rect>
	<rect x="176" y="192.1" class="st0" width="16" height="16"></rect>
	<rect x="159.8" y="192.1" class="st0" width="16" height="16"></rect>
	<rect x="144.1" y="192.1" class="st0" width="16" height="16"></rect>
	<rect x="128.1" y="192.1" class="st0" width="16" height="16"></rect>
	<rect x="112.1" y="192.1" class="st2" width="16" height="16"></rect>
	<rect x="96.1" y="192.1" class="st2" width="16" height="16"></rect>
	<rect x="80.1" y="192.1" class="st4" width="16" height="16"></rect>
	<rect x="64.1" y="192.1" class="st4" width="16" height="16"></rect>
	<rect x="48.1" y="192.1" class="st4" width="16" height="16"></rect>
	<rect x="32.1" y="192.1" class="st4" width="16" height="16"></rect>
	<rect x="16.1" y="192.1" class="st2" width="16" height="16"></rect>
	<rect x="0.1" y="192.1" class="st0" width="16" height="16"></rect>
	<rect x="367.9" y="208.2" class="st0" width="16" height="16"></rect>
	<rect x="352" y="208.1" class="st2" width="16" height="16"></rect>
	<rect x="336" y="208.1" class="st4" width="16" height="16"></rect>
	<rect x="320" y="208.1" class="st0" width="16" height="16"></rect>
	<rect x="288" y="208.1" class="st4" width="16" height="16"></rect>
	<rect x="272" y="208.1" class="st2" width="16" height="16"></rect>
	<rect x="256" y="208.1" class="st2" width="16" height="16"></rect>
	<rect x="240" y="208.1" class="st2" width="16" height="16"></rect>
	<rect x="224" y="208.1" class="st2" width="16" height="16"></rect>
	<rect x="208" y="208.1" class="st2" width="16" height="16"></rect>
	<rect x="192" y="208.1" class="st2" width="16" height="16"></rect>
	<rect x="176" y="208.1" class="st2" width="16" height="16"></rect>
	<rect x="159.8" y="208.1" class="st2" width="16" height="16"></rect>
	<rect x="144.1" y="208.1" class="st2" width="16" height="16"></rect>
	<rect x="128.1" y="208.1" class="st2" width="16" height="16"></rect>
	<rect x="112.1" y="208.1" class="st4" width="16" height="16"></rect>
	<rect x="96.1" y="208.1" class="st4" width="16" height="16"></rect>
	<rect x="80.1" y="208.1" class="st4" width="16" height="16"></rect>
	<rect x="64.1" y="208.1" class="st4" width="16" height="16"></rect>
	<rect x="48.1" y="208.1" class="st4" width="16" height="16"></rect>
	<rect x="32.1" y="208.1" class="st2" width="16" height="16"></rect>
	<rect x="16.1" y="208.1" class="st0" width="16" height="16"></rect>
	<rect x="351.9" y="224.2" class="st0" width="16" height="16"></rect>
	<rect x="336" y="224.1" class="st2" width="16" height="16"></rect>
	<rect x="320" y="224.1" class="st4" width="16" height="16"></rect>
	<rect x="304" y="224.1" class="st0" width="16" height="16"></rect>
	<rect x="256" y="224.1" class="st4" width="16" height="16"></rect>
	<rect x="240" y="224.1" class="st4" width="16" height="16"></rect>
	<rect x="224" y="224.1" class="st4" width="16" height="16"></rect>
	<rect x="208" y="224.1" class="st4" width="16" height="16"></rect>
	<rect x="192" y="224.1" class="st4" width="16" height="16"></rect>
	<rect x="176" y="224.1" class="st4" width="16" height="16"></rect>
	<rect x="159.8" y="224.1" class="st4" width="16" height="16"></rect>
	<rect x="144.1" y="224.1" class="st4" width="16" height="16"></rect>
	<rect x="128.1" y="224.1" class="st4" width="16" height="16"></rect>
	<rect x="112.1" y="224.1" class="st4" width="16" height="16"></rect>
	<rect x="96.1" y="224.1" class="st4" width="16" height="16"></rect>
	<rect x="80.1" y="224.1" class="st4" width="16" height="16"></rect>
	<rect x="64.1" y="224.1" class="st4" width="16" height="16"></rect>
	<rect x="48.1" y="224.1" class="st2" width="16" height="16"></rect>
	<rect x="32.1" y="224.1" class="st0" width="16" height="16"></rect>
	<rect x="335.9" y="240.2" class="st0" width="16" height="16"></rect>
	<rect x="320" y="240.1" class="st2" width="16" height="16"></rect>
	<rect x="304" y="240.1" class="st2" width="16" height="16"></rect>
	<rect x="288" y="240.1" class="st0" width="16" height="16"></rect>
	<rect x="272" y="240.1" class="st0" width="16" height="16"></rect>
	<rect x="240" y="240.1" class="st5" width="16" height="16"></rect>
	<rect x="208" y="240.1" class="st5" width="16" height="16"></rect>
	<rect x="192" y="240.1" class="st5" width="16" height="16"></rect>
	<rect x="176" y="240.1" class="st5" width="16" height="16"></rect>
	<rect x="159.8" y="240.1" class="st5" width="16" height="16"></rect>
	<rect x="144.1" y="240.1" class="st5" width="16" height="16"></rect>
	<rect x="128.1" y="240.1" class="st5" width="16" height="16"></rect>
	<rect x="112.1" y="240.1" class="st4" width="16" height="16"></rect>
	<rect x="96.1" y="240.1" class="st4" width="16" height="16"></rect>
	<rect x="80.1" y="240.1" class="st4" width="16" height="16"></rect>
	<rect x="64.1" y="240.1" class="st2" width="16" height="16"></rect>
	<rect x="48.1" y="240.1" class="st0" width="16" height="16"></rect>
	<rect x="319.9" y="256.2" class="st0" width="16" height="16"></rect>
	<rect x="304" y="256.1" class="st2" width="16" height="16"></rect>
	<rect x="288" y="256.1" class="st2" width="16" height="16"></rect>
	<rect x="272" y="256.1" class="st2" width="16" height="16"></rect>
	<rect x="256" y="256.1" class="st0" width="16" height="16"></rect>
	<rect x="240" y="256.1" class="st0" width="16" height="16"></rect>
	<rect x="224" y="256.1" class="st0" width="16" height="16"></rect>
	<rect x="192" y="256.1" class="st0" width="16" height="16"></rect>
	<rect x="368" y="160.1" class="st0" width="16" height="16"></rect>
	<rect x="352.6" y="176.1" class="st0" width="16" height="16"></rect>
	<rect x="336" y="192.1" class="st0" width="16" height="16"></rect>
	<rect x="320" y="192.1" class="st4" width="16" height="16"></rect>
	<rect x="304" y="208.1" class="st4" width="16" height="16"></rect>
	<rect x="288" y="224.1" class="st2" width="16" height="16"></rect>
	<rect x="272" y="224.1" class="st4" width="16" height="16"></rect>
	<rect x="256" y="240.1" class="st4" width="16" height="16"></rect>
	<rect x="224" y="240.1" class="st5" width="16" height="16"></rect>
	<rect x="208" y="256.1" class="st5" width="16" height="16"></rect>
	<rect x="176" y="256.1" class="st5" width="16" height="16"></rect>
	<rect x="159.8" y="256.1" class="st5" width="16" height="16"></rect>
	<rect x="144.1" y="256.1" class="st4" width="16" height="16"></rect>
	<rect x="128.1" y="256.1" class="st4" width="16" height="16"></rect>
	<rect x="112.1" y="256.1" class="st2" width="16" height="16"></rect>
	<rect x="96.1" y="256.1" class="st2" width="16" height="16"></rect>
	<rect x="80.1" y="256.1" class="st2" width="16" height="16"></rect>
	<rect x="64.1" y="256.1" class="st0" width="16" height="16"></rect>
	<rect x="303.9" y="271.9" class="st0" width="16" height="16"></rect>
	<rect x="287.9" y="271.9" class="st0" width="16" height="16"></rect>
	<rect x="272" y="271.8" class="st2" width="16" height="16"></rect>
	<rect x="256" y="271.8" class="st2" width="16" height="16"></rect>
	<rect x="240" y="271.8" class="st2" width="16" height="16"></rect>
	<rect x="224" y="271.8" class="st2" width="16" height="16"></rect>
	<rect x="208" y="271.8" class="st2" width="16" height="16"></rect>
	<rect x="192" y="271.8" class="st2" width="16" height="16"></rect>
	<rect x="176" y="271.8" class="st2" width="16" height="16"></rect>
	<rect x="159.8" y="271.8" class="st2" width="16" height="16"></rect>
	<rect x="144.1" y="271.8" class="st2" width="16" height="16"></rect>
	<rect x="128.1" y="271.8" class="st2" width="16" height="16"></rect>
	<rect x="112.1" y="271.8" class="st2" width="16" height="16"></rect>
	<rect x="96.1" y="271.8" class="st0" width="16" height="16"></rect>
	<rect x="80.1" y="271.8" class="st0" width="16" height="16"></rect>
	<rect x="271.9" y="287.9" class="st0" width="16" height="16"></rect>
	<rect x="255.9" y="287.9" class="st0" width="16" height="16"></rect>
	<rect x="239.9" y="287.9" class="st0" width="16" height="16"></rect>
	<rect x="223.9" y="287.9" class="st0" width="16" height="16"></rect>
	<rect x="207.9" y="287.9" class="st2" width="16" height="16"></rect>
	<rect x="191.9" y="287.9" class="st2" width="16" height="16"></rect>
	<rect x="176" y="287.8" class="st2" width="16" height="16"></rect>
	<rect x="159.8" y="287.8" class="st2" width="16" height="16"></rect>
	<rect x="144.1" y="287.8" class="st2" width="16" height="16"></rect>
	<rect x="128.1" y="287.8" class="st0" width="16" height="16"></rect>
	<rect x="112.1" y="287.8" class="st0" width="16" height="16"></rect>
	<rect x="223.9" y="303.9" class="st0" width="16" height="16"></rect>
	<rect x="208" y="303.9" class="st0" width="16" height="16"></rect>
	<rect x="192" y="303.9" class="st0" width="16" height="16"></rect>
	<rect x="176" y="303.9" class="st0" width="16" height="16"></rect>
	<rect x="159.8" y="303.9" class="st0" width="16" height="16"></rect>
	<rect x="144.1" y="303.9" class="st0" width="16" height="16"></rect>
	<rect x="128.1" y="303.9" class="st0" width="16" height="16"></rect>
	<rect x="368.6" y="224.2" class="st3" width="16" height="16"></rect>
	<rect x="352.5" y="240.3" class="st3" width="16" height="16"></rect>
	<rect x="336.5" y="256.3" class="st3" width="16" height="16"></rect>
	<rect x="320.5" y="272.3" class="st3" width="16" height="16"></rect>
	<rect x="304.5" y="288.3" class="st3" width="16" height="16"></rect>
	<rect x="288.5" y="288.3" class="st3" width="16" height="16"></rect>
	<rect x="240" y="303.9" class="st3" width="16" height="16"></rect>
	<rect x="96.1" y="288.3" class="st3" width="16" height="16"></rect>
	<rect x="80.1" y="288.3" class="st3" width="16" height="16"></rect>
	<rect x="64.1" y="272.3" class="st3" width="16" height="16"></rect>
	<rect x="174.1" y="303.9" class="st3" width="16" height="16"></rect>
	<rect x="112.8" y="303.9" class="st3" width="16" height="16"></rect>
	<rect x="271.9" y="303.9" class="st6" width="16" height="16"></rect>
	<rect x="255.9" y="303.9" class="st6" width="16" height="16"></rect>
	<rect x="240" y="319.9" class="st6" width="16" height="16"></rect>
	<rect x="224" y="319.9" class="st6" width="16" height="16"></rect>
	<rect x="207.9" y="319.9" class="st6" width="16" height="16"></rect>
	<rect x="191.9" y="319.9" class="st6" width="16" height="16"></rect>
	<rect x="303.9" y="288.3" class="st6" width="16" height="16"></rect>
	<rect x="384" y="144.1" class="st6" width="16" height="16"></rect>
	
		<rect x="0.1" y="80.1" transform="matrix(0.9999 -1.105048e-02 1.105048e-02 0.9999 -0.973 9.481775e-02)" class="st6" width="16" height="16"></rect>
	<rect x="16.1" y="208.1" class="st6" width="16" height="16"></rect>
	<rect x="16.1" y="80.1" class="st6" width="16" height="16"></rect>
	<rect x="0.1" y="192.1" class="st6" width="16" height="16"></rect>
	<rect x="32.1" y="64.1" class="st6" width="16" height="16"></rect>
	<rect x="176" y="319.9" class="st6" width="16" height="16"></rect>
	<rect x="144.1" y="303.9" class="st6" width="16" height="16"></rect>
	<rect x="64.1" y="272.3" class="st6" width="16" height="16"></rect>
	<rect x="128.1" y="303.9" class="st6" width="16" height="16"></rect>
	<rect x="48.1" y="256.1" class="st6" width="16" height="16"></rect>
	<rect x="159.8" y="319.9" class="st3" width="16" height="16"></rect>
	<rect x="32.1" y="240.1" class="st6" width="16" height="16"></rect>
	<rect x="96.1" y="288.3" class="st6" width="16" height="16"></rect>
	<rect x="16.1" y="224.1" class="st6" width="16" height="16"></rect>
	<rect x="288.5" y="176.1" class="st6" width="16" height="16"></rect>
	<rect x="336" y="144.1" class="st6" width="16" height="16"></rect>
	<rect x="255.9" y="192.1" class="st6" width="16" height="16"></rect>
	<rect x="112.1" y="176.1" class="st6" width="16" height="16"></rect>
	<rect x="303.9" y="160.2" class="st6" width="16" height="16"></rect>
	<rect x="48.1" y="96.1" class="st6" width="16" height="16"></rect>
	<rect x="320" y="160.1" class="st6" width="16" height="16"></rect>
</g>
</svg>